<?xml version="1.0" standalone="no"?>
<!DOCTYPE svg PUBLIC "-//W3C//DTD SVG 20010904//EN"
 "http://www.w3.org/TR/2001/REC-SVG-20010904/DTD/svg10.dtd">
<svg version="1.0" xmlns="http://www.w3.org/2000/svg"
 width="200.000000pt" height="200.000000pt" viewBox="0 0 200.000000 200.000000"
 preserveAspectRatio="xMidYMid meet">

<g transform="translate(0.000000,200.000000) scale(0.100000,-0.100000)"
fill="#000000" stroke="none">
<path d="M27 1993 l-27 -4 0 -243 0 -244 32 2 c17 1 33 7 36 14 9 28 22 9 22
-33 0 -48 -1 -48 -57 -45 -32 1 -33 0 -33 -39 0 -39 1 -40 26 -31 67 26 114 5
114 -49 0 -30 29 -26 41 5 5 15 12 24 16 20 8 -8 -17 -86 -28 -86 -4 0 -10
-12 -12 -27 -3 -21 -4 -20 -3 5 l2 33 -39 -7 c-36 -6 -39 -5 -32 12 17 40 12
59 -15 56 -14 -1 -27 -7 -29 -13 -2 -6 -12 -19 -22 -27 -12 -11 -19 -30 -19
-52 0 -34 2 -36 35 -37 19 -1 38 3 41 8 3 5 14 9 25 9 15 0 20 -6 17 -22 -2
-16 -10 -23 -25 -22 -15 0 -24 -7 -28 -24 -5 -21 -10 -23 -35 -18 -29 5 -30 4
-30 -32 0 -47 8 -59 45 -67 17 -4 38 -9 47 -12 14 -3 18 2 18 21 0 14 5 26 10
26 7 0 10 -27 8 -72 -2 -40 -7 -73 -13 -73 -5 0 -11 9 -13 21 -3 18 -11 21
-52 23 -46 1 -50 -1 -50 -21 0 -27 47 -52 98 -52 17 0 32 -2 32 -5 1 -4 5 -26
10 -51 10 -56 7 -62 -28 -44 -15 7 -37 14 -50 14 -17 0 -24 7 -28 30 -4 17
-13 30 -20 30 -11 0 -14 -19 -13 -82 0 -60 3 -77 9 -60 5 12 14 22 20 22 14 0
50 -37 50 -53 0 -21 -30 -57 -43 -52 -34 13 -38 -9 -35 -195 3 -171 4 -183 22
-186 30 -4 49 -29 41 -54 -5 -15 -10 -19 -17 -12 -6 6 -16 8 -23 5 -7 -2 -15
4 -18 14 -3 10 -5 -12 -6 -48 l-1 -67 33 -5 c17 -2 35 0 38 4 3 6 22 6 45 1
31 -7 39 -13 38 -30 -1 -20 1 -20 16 -7 13 12 23 12 53 3 20 -6 37 -15 37 -19
0 -4 16 -10 35 -13 21 -4 35 -13 35 -21 0 -18 16 -20 24 -2 5 9 7 9 12 0 4
-10 48 -13 170 -13 l164 0 0 26 c0 14 -4 23 -10 19 -6 -3 -10 -13 -10 -21 0
-9 -8 -12 -22 -10 -13 3 -29 5 -35 5 -8 1 -13 15 -13 36 0 41 20 48 21 8 l0
-28 11 25 11 25 7 -30 c6 -25 8 -26 9 -7 1 18 6 23 24 20 18 -2 22 -9 22 -36
0 -17 3 -32 7 -32 5 0 8 11 8 24 0 27 20 39 41 25 11 -7 11 -9 -2 -9 -17 0
-32 -24 -22 -34 4 -3 17 -6 31 -6 19 0 23 4 19 19 -2 10 -1 25 4 32 7 11 11
10 23 -6 9 -11 16 -26 16 -33 0 -10 44 -12 204 -12 204 1 205 2 220 25 19 29
21 85 4 85 -16 0 6 23 25 26 17 2 16 -82 -2 -114 -12 -22 -11 -22 50 -22 l61
0 -7 41 c-6 32 -4 40 6 37 7 -2 16 -15 19 -29 l6 -24 6 22 c3 13 11 23 17 23
14 0 15 -37 1 -45 -12 -8 -13 -25 -1 -25 5 0 14 14 20 30 15 43 61 34 61 -12
0 -10 4 -18 9 -18 16 0 24 40 11 55 -14 16 1 28 25 19 12 -5 16 -16 13 -40 -5
-43 16 -45 37 -4 15 28 34 38 48 24 3 -4 -1 -16 -9 -29 -14 -22 -14 -22 45
-21 33 0 57 4 54 8 -10 17 30 21 42 5 10 -14 30 -17 104 -17 l91 0 0 30 c0 23
-5 31 -25 36 -14 3 -38 4 -53 1 -39 -8 -62 8 -62 44 0 17 -4 28 -10 24 -5 -3
-9 -20 -7 -37 3 -40 -21 -57 -57 -40 -16 7 -26 20 -26 32 0 11 -3 20 -7 21 -5
1 -30 3 -57 5 -27 3 -55 9 -62 15 -7 6 -17 8 -23 5 -13 -8 -61 11 -61 24 0 5
7 10 15 10 20 0 20 58 0 80 -14 15 -12 16 15 12 29 -4 30 -6 30 -56 1 -51 1
-51 16 -23 15 27 56 38 68 18 3 -5 15 -7 26 -4 11 3 28 2 37 -3 18 -7 117 -16
179 -15 19 1 34 -5 38 -14 12 -33 26 -12 26 41 0 31 -4 53 -9 49 -5 -3 -13 -1
-16 5 -4 6 -21 10 -39 8 -35 -2 -93 28 -99 51 -4 13 -5 13 -6 -1 -1 -11 -9
-18 -21 -18 -17 0 -19 4 -14 27 4 16 9 31 11 36 7 13 50 8 63 -8 12 -14 15
-14 36 0 32 21 54 19 54 -5 0 -24 25 -27 34 -4 12 32 6 62 -14 67 -23 6 -17
37 7 37 12 0 14 61 12 430 -1 237 -4 430 -5 430 -2 0 -12 -17 -23 -39 -21 -41
-41 -54 -66 -45 -13 5 -12 9 5 24 13 12 18 24 13 35 -6 17 -7 16 -14 -3 -5
-12 -15 -22 -23 -22 -17 0 -41 64 -32 85 6 17 42 20 51 4 4 -6 13 -8 21 -5 7
3 16 1 18 -3 3 -5 17 -8 31 -8 24 0 25 1 25 69 0 63 -2 69 -16 57 -13 -10 -17
-10 -25 2 -6 9 -3 18 8 27 9 6 12 12 5 12 -7 0 -12 11 -12 25 0 41 28 31 33
-12 2 -21 4 2 5 50 2 70 -1 89 -13 93 -8 4 -15 12 -15 20 0 8 6 11 15 8 13 -5
15 16 15 155 l0 161 -270 0 -270 0 0 -85 c0 -79 2 -86 23 -95 21 -8 21 -9 -5
-9 -25 -1 -28 3 -28 29 0 25 -4 30 -24 30 -28 0 -41 14 -29 33 4 6 8 17 8 22
0 6 10 14 23 20 13 6 22 18 22 32 l0 23 -349 0 -349 0 -12 -30 c-7 -17 -10
-48 -7 -70 5 -43 -6 -53 -23 -21 -14 28 -12 64 5 87 8 10 15 22 15 27 0 4 -34
7 -75 7 l-75 0 0 -46 c0 -30 4 -43 11 -38 6 3 9 22 7 40 -3 28 -1 34 15 34 16
0 18 -5 12 -39 -4 -24 -2 -41 4 -46 14 -8 33 42 26 66 -4 13 -1 19 8 19 11 0
16 -14 19 -47 3 -27 3 -50 1 -52 -2 -3 -25 -4 -52 -2 l-49 2 -4 -46 c-3 -47
-5 -45 45 -49 6 -1 11 5 9 12 -3 16 30 12 35 -3 4 -13 -129 -77 -138 -67 -18
18 -13 47 9 57 20 9 22 16 22 102 0 51 -1 93 -2 94 -18 3 -510 6 -531 2z m781
-20 c-2 -12 -11 -17 -23 -15 -25 5 -29 8 -20 21 11 19 47 13 43 -6z m122 -9
c0 -7 -9 -12 -20 -11 -12 1 -20 8 -20 18 0 12 6 16 20 12 11 -3 20 -11 20 -19z
m190 2 c0 -9 -9 -14 -20 -13 -11 1 -20 7 -20 14 0 7 9 13 20 13 11 0 20 -6 20
-14z m130 0 c0 -8 -4 -18 -10 -21 -5 -3 -10 -1 -10 5 0 6 -4 8 -10 5 -5 -3
-10 1 -10 9 0 9 9 16 20 16 11 0 20 -6 20 -14z m709 -10 c7 -8 11 -32 9 -53
-3 -38 -3 -38 -53 -43 -58 -6 -57 -5 -111 -155 -19 -55 -44 -122 -54 -150 -10
-27 -49 -133 -85 -235 -80 -220 -88 -240 -97 -240 -5 0 -8 17 -8 39 0 72 -39
135 -116 186 -30 20 -54 40 -54 45 0 4 27 73 61 152 157 370 153 355 92 360
-36 3 -38 5 -41 42 -6 69 -16 66 226 66 178 0 222 -3 231 -14z m-1454 -56 c0
-53 -1 -55 -27 -58 -20 -2 -28 -9 -28 -23 0 -20 54 -143 187 -429 26 -56 41
-99 36 -106 -58 -76 -93 -141 -93 -176 0 -21 -9 -56 -20 -78 -11 -22 -20 -58
-20 -82 0 -37 -2 -40 -14 -28 -8 8 -50 103 -94 210 -158 386 -225 546 -248
598 -13 29 -24 57 -24 62 0 23 -41 50 -75 50 l-35 0 0 53 c0 30 3 57 7 61 4 3
106 5 227 4 l221 -3 0 -55z m343 -12 c-2 -13 -11 -24 -20 -26 -14 -3 -15 0 -5
22 15 32 30 34 25 4z m128 7 c5 -12 24 -15 87 -15 44 0 78 -3 74 -6 -9 -9
-217 -11 -217 -2 0 4 7 8 15 8 8 0 15 7 15 15 0 8 5 15 10 15 6 0 13 -7 16
-15z m319 -17 c-3 -13 -7 -28 -7 -35 -1 -8 -8 -8 -26 0 -22 10 -22 12 -5 18
10 3 19 11 19 18 2 19 4 21 15 21 7 0 9 -8 4 -22z m-82 -25 c-7 -2 -19 -2 -25
0 -7 3 -2 5 12 5 14 0 19 -2 13 -5z m-446 -19 c-3 -3 -12 -4 -19 -1 -8 3 -5 6
6 6 11 1 17 -2 13 -5z m-50 -20 c-3 -3 -12 -4 -19 -1 -8 3 -5 6 6 6 11 1 17
-2 13 -5z m483 -16 c113 -26 256 -87 267 -113 3 -9 -9 -51 -27 -95 -33 -82
-51 -97 -82 -67 -17 16 -50 31 -128 59 -56 20 -84 23 -205 23 -109 0 -151 -4
-190 -18 -67 -25 -114 -47 -147 -69 -14 -10 -33 -18 -40 -18 -9 0 -31 36 -53
86 -38 84 -38 87 -19 101 31 24 154 80 217 98 118 34 291 40 407 13z m235 -9
c12 -19 -2 -21 -32 -5 l-28 15 27 1 c15 0 30 -5 33 -11z m75 2 c0 -6 -4 -12
-10 -16 -5 -3 -7 -12 -4 -20 4 -10 0 -12 -15 -8 -25 6 -26 11 -4 35 17 20 33
24 33 9z m-1406 -17 c17 -16 22 -44 8 -44 -5 0 -17 9 -26 19 -10 11 -25 17
-37 14 -18 -5 -26 7 -12 20 12 13 51 7 67 -9z m1791 -49 c6 0 15 4 22 8 22 14
43 -4 43 -38 0 -66 -55 -67 -79 0 -12 36 -14 55 -3 40 4 -6 12 -10 17 -10z
m-34 -68 c-15 -15 -24 -2 -16 24 7 20 8 21 17 5 7 -12 7 -21 -1 -29z m-1681
-37 c0 -5 -8 -6 -18 -3 -10 2 -24 -3 -31 -11 -15 -18 -57 -21 -66 -5 -4 6 -13
8 -21 5 -19 -7 -19 28 0 43 10 9 16 9 21 1 5 -8 11 -8 20 0 8 7 18 9 23 6 5
-3 17 1 28 8 16 12 20 11 31 -11 7 -14 13 -29 13 -33z m840 -54 c0 -32 -2 -34
-30 -32 -16 1 -33 5 -36 9 -4 4 -13 2 -20 -4 -9 -8 -18 -5 -33 10 -29 29 -28
29 -45 6 -8 -11 -18 -16 -23 -12 -12 13 27 37 59 37 20 0 28 -5 28 -17 1 -16
2 -15 12 2 15 27 28 35 61 35 24 0 27 -4 27 -34z m867 -17 c10 6 14 11 8 11
-5 0 -3 5 5 10 21 13 27 12 27 -5 0 -8 -4 -15 -9 -15 -5 0 -6 -5 -2 -11 7 -12
-15 -59 -28 -59 -5 0 -7 4 -3 9 3 5 1 12 -5 16 -6 4 -8 11 -5 16 4 5 2 9 -3 9
-5 0 -14 -11 -20 -24 -7 -16 -21 -25 -44 -29 -38 -5 -45 -2 -31 15 6 7 16 34
24 60 l13 47 27 -30 c23 -25 31 -29 46 -20z m-1690 19 c-3 -8 -6 -5 -6 6 -1
11 2 17 5 13 3 -3 4 -12 1 -19z m930 15 c-17 -4 -17 -5 -1 -17 22 -17 12 -46
-16 -46 -11 0 -20 5 -20 10 0 6 7 10 16 10 14 0 14 1 0 16 -20 19 -12 34 17
33 18 -1 19 -2 4 -6z m62 -19 c-11 -14 -10 -18 6 -30 18 -14 18 -14 -3 -14
-18 0 -22 6 -22 30 0 21 5 30 16 30 14 0 14 -2 3 -16z m51 -24 c0 -11 -4 -20
-10 -20 -5 0 -10 9 -10 20 0 11 5 20 10 20 6 0 10 -9 10 -20z m-1058 -14 c24
-6 26 -9 21 -41 -6 -37 -4 -39 21 -29 9 3 13 11 9 18 -4 6 1 5 10 -3 19 -15
23 -41 7 -41 -5 0 -10 -7 -10 -15 0 -19 -7 -19 -26 0 -12 12 -19 12 -34 3 -26
-16 -34 -5 -23 29 14 39 7 50 -27 45 -22 -3 -30 0 -30 11 0 17 27 37 44 32 6
-2 23 -6 38 -9z m596 2 c-3 -7 -18 -14 -34 -16 -28 -3 -28 -3 -9 12 24 19 48
21 43 4z m542 -3 l25 -14 -26 -1 c-15 0 -29 7 -33 15 -7 18 2 18 34 0z m-241
-21 c2 -2 -12 -4 -32 -4 -20 0 -37 4 -37 10 0 8 58 3 69 -6z m-390 -86 c-1
-20 -3 -26 -6 -14 -3 11 -11 26 -19 33 -7 8 -11 20 -8 28 10 25 34 -9 33 -47z
m701 52 c0 -5 -2 -10 -4 -10 -3 0 -8 5 -11 10 -3 6 -1 10 4 10 6 0 11 -4 11
-10z m-580 -50 c0 -15 -7 -20 -25 -20 -18 0 -25 5 -25 20 0 15 7 20 25 20 18
0 25 -5 25 -20z m123 4 c-3 -11 -83 -34 -83 -23 0 5 7 9 15 9 8 0 15 6 15 14
0 10 9 14 28 12 15 -2 26 -7 25 -12z m47 12 c0 -3 -4 -8 -10 -11 -5 -3 -10 -1
-10 4 0 6 5 11 10 11 6 0 10 -2 10 -4z m287 -2 c-3 -3 -12 -4 -19 -1 -8 3 -5
6 6 6 11 1 17 -2 13 -5z m99 -21 c-10 -10 -19 5 -10 18 6 11 8 11 12 0 2 -7 1
-15 -2 -18z m-46 7 c0 -5 -4 -10 -9 -10 -6 0 -13 5 -16 10 -3 6 1 10 9 10 9 0
16 -4 16 -10z m-80 -36 c0 -3 -24 -16 -52 -29 -97 -43 -160 -118 -75 -87 116
42 276 -28 337 -147 20 -40 27 -91 13 -91 -5 0 -19 18 -33 40 -25 42 -88 90
-116 90 -14 0 -15 -6 -8 -42 25 -122 2 -305 -46 -368 l-19 -25 6 81 c4 61 1
101 -12 157 -22 93 -38 103 -54 34 -18 -77 -86 -209 -138 -267 -48 -53 -130
-116 -140 -106 -3 3 3 22 13 43 11 22 19 63 20 98 2 58 3 61 38 81 56 32 95
74 108 116 13 44 8 54 -21 38 -25 -13 -25 -10 -5 49 15 41 15 51 2 96 l-15 49
-28 -42 c-34 -52 -81 -82 -131 -85 -30 -2 -39 2 -42 16 -5 25 26 46 69 47 46
0 76 32 94 100 8 29 24 63 36 76 18 19 19 24 7 24 -28 0 -136 -80 -185 -136
-61 -70 -121 -113 -133 -95 -18 31 37 124 98 166 20 14 32 25 27 25 -13 0 -57
-30 -67 -44 -12 -18 -19 0 -9 25 13 35 60 66 143 93 61 21 93 25 196 25 67 1
122 -1 122 -5z m544 -36 c65 -146 92 -286 82 -419 -22 -290 -183 -535 -449
-683 -26 -14 -89 -40 -140 -58 -86 -29 -101 -31 -242 -32 -128 -1 -162 3 -230
22 -389 112 -644 459 -622 848 3 55 14 131 25 171 23 84 63 168 77 162 6 -2
33 -58 61 -124 51 -117 52 -121 43 -180 -27 -185 48 -405 184 -537 63 -61 166
-124 252 -155 70 -24 94 -28 200 -28 96 0 134 5 190 22 215 68 383 244 439
460 19 71 21 238 5 293 -11 35 -8 48 30 148 22 60 41 115 41 121 0 6 8 11 18
11 11 0 24 -16 36 -42z m56 27 c0 -8 -2 -15 -4 -15 -2 0 -6 7 -10 15 -3 8 -1
15 4 15 6 0 10 -7 10 -15z m-1100 -45 c0 -5 -5 -10 -11 -10 -5 0 -7 5 -4 10 3
6 8 10 11 10 2 0 4 -4 4 -10z m-603 -182 c-3 -7 -5 -2 -5 12 0 14 2 19 5 13 2
-7 2 -19 0 -25z m808 22 c-3 -5 -13 -10 -21 -10 -8 0 -14 5 -14 10 0 6 9 10
21 10 11 0 17 -4 14 -10z m-298 -32 c-3 -8 -6 -5 -6 6 -1 11 2 17 5 13 3 -3 4
-12 1 -19z m-20 -40 c-3 -8 -6 -5 -6 6 -1 11 2 17 5 13 3 -3 4 -12 1 -19z
m1013 -34 c0 -8 -4 -14 -10 -14 -5 0 -10 9 -10 21 0 11 5 17 10 14 6 -3 10
-13 10 -21z m-861 -5 c38 -13 40 -34 7 -78 -30 -40 -56 -60 -78 -61 -12 0 -21
-13 -28 -40 -15 -57 -4 -65 33 -23 18 20 49 49 70 64 21 15 61 48 88 73 51 46
69 55 69 35 0 -12 -21 -33 -80 -77 -19 -15 -65 -56 -101 -92 -53 -52 -68 -75
-78 -114 -12 -47 -12 -48 -31 -31 -50 45 -77 158 -45 185 8 7 15 20 15 30 0
21 25 83 47 117 17 26 58 31 112 12z m-344 -30 c4 -11 2 -33 -4 -47 -5 -15
-12 -36 -14 -47 -3 -11 -5 10 -6 48 -1 65 11 88 24 46z m1215 -63 l0 -64 -27
4 c-16 3 -36 6 -45 7 -21 2 -21 1 -6 44 10 27 17 33 40 33 21 0 28 5 28 20 0
11 2 20 5 20 3 0 5 -29 5 -64z m-730 -18 c-1 -23 -27 -48 -49 -48 -28 0 -27 6
7 35 30 27 42 31 42 13z m1007 -20 c-3 -8 -6 -5 -6 6 -1 11 2 17 5 13 3 -3 4
-12 1 -19z m-1437 -29 c0 -6 -4 -7 -10 -4 -5 3 -10 11 -10 16 0 6 5 7 10 4 6
-3 10 -11 10 -16z m960 14 c0 -5 4 -14 9 -22 8 -12 12 -12 25 -2 25 21 21 -2
-20 -109 -20 -52 -54 -142 -75 -200 -58 -153 -53 -146 -143 -182 -76 -30 -89
-32 -211 -33 -138 0 -199 12 -279 58 -35 19 -45 34 -78 112 -42 98 -44 124 -8
82 13 -15 27 -27 32 -27 4 0 8 33 8 73 0 79 14 111 56 127 29 12 64 0 93 -31
36 -39 23 -130 -23 -168 -32 -26 -17 -34 57 -29 39 3 80 9 89 13 13 5 21 0 29
-19 16 -35 25 -33 39 9 6 19 26 45 43 57 18 12 38 28 46 36 20 19 31 -2 24
-45 -3 -18 -3 -33 1 -33 4 0 33 18 65 39 99 68 158 147 191 259 7 23 17 42 22
42 4 0 8 -3 8 -7z m480 -35 c0 -13 -5 -30 -10 -38 -7 -11 -10 -5 -10 23 0 20
5 37 10 37 6 0 10 -10 10 -22z m-303 -50 c-3 -8 -6 -5 -6 6 -1 11 2 17 5 13 3
-3 4 -12 1 -19z m-1147 -25 c14 -2 32 -3 41 -4 14 0 25 -23 43 -85 6 -19 3
-21 -40 -20 -47 0 -47 1 -71 53 -26 60 -29 78 -10 66 6 -4 23 -9 37 -10z
m1434 -60 c-9 -87 -17 -109 -44 -116 -17 -4 -21 -2 -16 11 3 9 15 52 28 95 13
42 27 77 31 77 5 0 5 -30 1 -67z m-364 37 c0 -15 -7 -20 -25 -20 -27 0 -28 1
-19 24 9 24 44 20 44 -4z m-1378 -67 c10 -21 4 -47 -19 -82 -1 -2 -9 2 -18 9
-19 16 -19 54 0 70 8 7 16 24 16 39 1 20 2 21 6 6 2 -11 9 -30 15 -42z m1325
5 c-3 -8 -6 -5 -6 6 -1 11 2 17 5 13 3 -3 4 -12 1 -19z m-941 -85 c33 6 45 -4
73 -67 25 -57 27 -78 6 -70 -8 4 -15 12 -15 19 0 8 -9 16 -19 20 -20 6 -91 91
-91 109 0 6 4 5 9 -3 6 -9 19 -12 37 -8z m933 -13 c15 0 31 -3 34 -7 9 -8 -22
-43 -39 -43 -16 0 -34 32 -33 57 0 10 3 13 6 6 2 -7 17 -13 32 -13z m348 -32
c-3 -8 -6 -5 -6 6 -1 11 2 17 5 13 3 -3 4 -12 1 -19z m76 -29 c9 0 17 -5 17
-10 0 -5 11 -7 24 -3 36 9 38 -17 5 -69 -19 -31 -36 -47 -49 -47 -21 0 -28 24
-10 35 6 3 10 11 10 17 0 7 -5 6 -14 -1 -23 -19 -70 -10 -75 14 -2 11 -9 24
-17 28 -11 6 -11 12 -2 27 9 15 21 18 52 14 23 -2 49 -4 59 -5z m-1813 -13 c6
-8 10 -25 8 -38 -2 -17 -10 -23 -28 -23 -18 0 -26 6 -28 23 -3 22 13 52 28 52
4 0 13 -7 20 -14z m100 -21 c16 -19 5 -47 -16 -43 -27 5 -42 37 -24 48 20 13
26 12 40 -5z m64 -10 c9 -14 13 -25 8 -25 -5 0 -14 11 -20 25 -6 14 -10 25 -8
25 2 0 11 -11 20 -25z m1170 6 c3 -5 -1 -14 -9 -21 -13 -10 -15 -9 -15 9 0 21
14 28 24 12z m-1344 -112 c0 -11 5 -17 10 -14 11 7 16 -3 25 -57 5 -34 4 -38
-15 -38 -22 0 -26 20 -10 50 11 20 -2 35 -35 42 -11 2 -21 11 -23 21 -3 12 3
17 22 17 20 0 26 -5 26 -21z m1626 -4 c-9 -9 -16 -13 -16 -8 0 12 22 34 28 28
2 -2 -3 -11 -12 -20z m64 -51 c0 -56 -2 -65 -16 -60 -9 3 -19 6 -23 6 -4 0 -8
7 -8 15 0 8 4 15 9 15 5 0 7 12 5 28 -5 29 8 62 23 62 6 0 10 -30 10 -66z
m-1315 -60 c22 -18 67 -49 100 -68 40 -25 52 -36 38 -36 -12 0 -25 5 -28 10
-3 6 -17 10 -31 10 -14 0 -27 7 -30 15 -4 10 -14 13 -29 9 -21 -5 -25 -1 -30
28 -5 26 -14 37 -36 45 -35 14 -43 4 -35 -42 8 -42 -10 -56 -26 -20 -8 17 -17
24 -27 20 -32 -13 -36 -9 -36 45 0 52 1 55 25 55 22 0 25 -4 22 -30 l-2 -30
16 28 c14 26 14 30 0 46 -33 37 -14 29 27 -10 23 -23 60 -57 82 -75z m-241 65
c3 -18 2 -37 -4 -44 -5 -6 -7 -14 -4 -17 3 -3 1 -8 -4 -12 -5 -3 -8 19 -8 49
1 61 10 72 20 24z m1411 -39 c-26 -29 -39 -25 -13 5 12 14 24 23 26 20 3 -3
-3 -14 -13 -25z m65 9 c0 -25 -33 -22 -38 4 -2 12 3 17 17 17 15 0 21 -6 21
-21z m-1596 -127 c6 -40 5 -42 -13 -33 -18 10 -19 24 -5 70 6 20 10 12 18 -37z
m54 -15 c2 -18 -1 -27 -11 -27 -14 0 -29 44 -19 55 12 12 27 -3 30 -28z m160
-25 c4 -49 19 -56 24 -10 5 47 28 49 28 2 0 -34 1 -36 14 -19 8 12 20 16 34
13 12 -3 23 -1 25 6 8 21 42 -28 43 -62 1 -32 1 -32 -35 -26 -20 4 -43 10 -51
14 -8 4 -35 11 -60 15 -24 4 -53 12 -65 18 -11 5 -27 13 -35 17 -21 10 -24 44
-5 60 21 17 44 -2 27 -22 -13 -16 1 -44 17 -34 6 4 11 23 11 42 0 51 24 38 28
-14z m1150 21 c2 -8 -6 -13 -22 -13 -25 0 -33 10 -19 24 10 10 36 3 41 -11z
m62 -6 c0 -8 -3 -17 -7 -20 -9 -9 -34 13 -27 24 8 14 34 11 34 -4z m-873 -3
c-3 -3 -12 -4 -19 -1 -8 3 -5 6 6 6 11 1 17 -2 13 -5z m-453 -19 c3 -9 0 -15
-9 -15 -16 0 -27 14 -18 24 10 10 21 7 27 -9z m340 -22 c-5 -10 -9 -39 -9 -66
0 -29 -4 -47 -11 -47 -24 0 -33 75 -14 111 14 25 46 27 34 2z m256 -18 c0 -9
-10 -8 -35 4 -45 21 -45 32 0 18 19 -6 35 -16 35 -22z m-195 5 c3 -5 1 -10 -5
-10 -7 0 -9 -8 -5 -20 4 -11 2 -20 -4 -20 -6 0 -11 -7 -11 -15 0 -27 -19 -16
-22 13 -4 39 31 78 47 52z m597 -31 c-9 -36 -22 -39 -173 -39 -136 0 -149 2
-159 19 -5 11 -10 23 -10 28 0 4 78 8 173 7 144 0 171 -2 169 -15z m158 -64
c0 -8 -7 -15 -15 -15 -16 0 -20 12 -8 23 11 12 23 8 23 -8z"/>
<path d="M947 1764 c-4 -4 -7 -19 -7 -33 0 -14 -7 -35 -15 -45 -17 -23 -11
-36 16 -36 12 0 23 10 29 25 11 30 40 33 40 5 0 -17 7 -20 40 -20 22 0 40 3
40 6 0 3 -9 19 -20 35 -12 16 -20 36 -18 46 2 15 -6 18 -47 21 -28 2 -54 0
-58 -4z m48 -44 c3 -5 1 -10 -4 -10 -6 0 -11 5 -11 10 0 6 2 10 4 10 3 0 8 -4
11 -10z"/>
<path d="M1215 1741 c-3 -6 -3 -16 0 -21 4 -6 -3 -25 -14 -43 l-20 -33 33 -12
c43 -16 46 -15 46 8 0 11 7 20 15 20 9 0 15 -9 15 -25 0 -19 9 -29 35 -42 43
-20 54 -11 32 26 -18 30 -14 41 15 41 29 0 21 24 -13 39 -28 12 -32 12 -45 -8
-22 -30 -37 -26 -29 8 5 22 2 30 -12 34 -10 2 -25 8 -34 12 -10 3 -20 2 -24
-4z"/>
<path d="M728 1706 c-61 -22 -95 -75 -66 -104 30 -30 136 -1 165 44 12 18 11
24 -4 42 -25 28 -52 33 -95 18z m37 -46 c13 -42 -24 -56 -43 -16 -6 13 -8 27
-5 30 14 13 42 5 48 -14z"/>
<path d="M1910 1694 c0 -8 5 -12 10 -9 6 3 10 10 10 16 0 5 -4 9 -10 9 -5 0
-10 -7 -10 -16z"/>
<path d="M391 579 c-23 -60 -23 -61 -5 -78 15 -13 32 -16 77 -13 59 4 72 17
42 42 -13 11 -20 11 -41 0 -33 -18 -57 2 -25 22 11 7 21 19 21 26 0 15 -29 62
-39 62 -3 0 -17 -27 -30 -61z"/>
<path d="M1613 621 c-9 -14 -8 -22 5 -34 20 -21 7 -35 -17 -20 -16 10 -23 7
-45 -19 -30 -36 -20 -51 26 -38 22 7 32 5 47 -11 19 -20 19 -20 40 7 24 31 27
54 7 54 -16 0 -26 21 -26 56 0 29 -20 32 -37 5z"/>
<path d="M1396 408 c-76 -49 -73 -45 -48 -68 12 -12 22 -30 22 -40 0 -26 20
-25 67 1 54 29 80 56 67 69 -7 7 -16 4 -29 -10 -21 -23 -47 -27 -39 -5 4 9 0
15 -10 15 -26 0 -18 17 14 32 28 12 39 32 23 41 -5 2 -35 -13 -67 -35z"/>
<path d="M596 415 c-3 -9 -19 -21 -36 -26 -35 -13 -37 -20 -11 -43 16 -15 19
-15 31 -1 7 8 18 15 25 15 8 0 16 6 19 13 7 14 -1 -34 -9 -55 -6 -16 46 -50
61 -40 5 4 10 21 10 37 1 17 5 40 9 53 5 15 3 22 -6 22 -8 0 -25 9 -39 20 -30
24 -46 25 -54 5z"/>
<path d="M822 296 c1 -19 -5 -42 -12 -51 -18 -22 -4 -30 74 -44 63 -11 83 -5
72 24 -5 13 -10 14 -27 5 -11 -6 -27 -9 -35 -6 -16 6 -19 42 -4 51 18 11 10
33 -14 39 -13 3 -31 9 -40 12 -12 5 -15 -1 -14 -30z"/>
<path d="M1120 303 c-48 -8 -50 -10 -35 -40 8 -15 12 -38 8 -52 -6 -23 -4 -24
33 -18 21 4 49 7 60 7 32 0 66 31 54 50 -7 12 -13 11 -34 -9 -31 -30 -46 -20
-46 30 0 21 -3 38 -7 38 -5 -1 -19 -4 -33 -6z"/>
<path d="M712 1028 c-7 -7 -12 -18 -12 -25 0 -11 4 -11 20 -1 11 7 20 18 20
25 0 16 -12 17 -28 1z"/>
<path d="M1607 963 c-13 -13 -7 -31 13 -36 16 -4 20 0 20 19 0 23 -18 32 -33
17z"/>
<path d="M580 575 c0 -8 5 -15 10 -15 6 0 10 7 10 15 0 8 -4 15 -10 15 -5 0
-10 -7 -10 -15z"/>
<path d="M415 120 c-4 -6 -3 -16 3 -22 6 -6 12 -6 17 2 4 6 3 16 -3 22 -6 6
-12 6 -17 -2z"/>
<path d="M1418 1923 c7 -3 16 -2 19 1 4 3 -2 6 -13 5 -11 0 -14 -3 -6 -6z"/>
<path d="M540 1781 c0 -6 5 -13 10 -16 6 -3 10 1 10 9 0 9 -4 16 -10 16 -5 0
-10 -4 -10 -9z"/>
<path d="M1731 144 c0 -11 3 -14 6 -6 3 7 2 16 -1 19 -3 4 -6 -2 -5 -13z"/>
<path d="M1900 121 c0 -6 5 -13 10 -16 6 -3 10 1 10 9 0 9 -4 16 -10 16 -5 0
-10 -4 -10 -9z"/>
<path d="M90 46 c0 -17 14 -29 23 -20 8 8 -3 34 -14 34 -5 0 -9 -6 -9 -14z"/>
<path d="M196 34 c-11 -29 -6 -34 29 -34 26 0 35 4 35 17 0 9 -3 13 -7 10 -3
-4 -16 0 -29 8 -20 13 -23 12 -28 -1z"/>
<path d="M815 10 c-3 -5 -1 -10 4 -10 6 0 11 5 11 10 0 6 -2 10 -4 10 -3 0 -8
-4 -11 -10z"/>
</g>
</svg>
